<svg width="493" height="507" viewBox="0 0 493 507" fill="none" xmlns="http://www.w3.org/2000/svg">
<circle cx="5" cy="5" r="5" fill="#C8C8C8"/>
<circle cx="26" cy="5" r="5" fill="#D4D4D4"/>
<circle cx="47" cy="5" r="5" fill="#EAEAEA"/>
<circle cx="68" cy="5" r="5" fill="#E8E8E8"/>
<circle cx="89" cy="5" r="5" fill="#DADADA"/>
<circle cx="110" cy="5" r="5" fill="#CECECE"/>
<circle cx="131" cy="5" r="5" fill="#E4E4E4"/>
<circle cx="152" cy="5" r="5" fill="#E7E7E7"/>
<circle cx="173" cy="5" r="5" fill="#D1D1D1"/>
<circle cx="194" cy="5" r="5" fill="#E2E2E2"/>
<circle cx="215" cy="5" r="5" fill="#EBEBEB"/>
<circle cx="236" cy="5" r="5" fill="#FCFCFC"/>
<circle cx="257" cy="5" r="5" fill="#CFCFCF"/>
<circle cx="278" cy="5" r="5" fill="#C8C8C8"/>
<circle cx="299" cy="5" r="5" fill="#F3F3F3"/>
<circle cx="320" cy="5" r="5" fill="#E7E7E7"/>
<circle cx="341" cy="5" r="5" fill="#F5F5F5"/>
<circle cx="362" cy="5" r="5" fill="#D3D3D3"/>
<circle cx="383" cy="5" r="5" fill="#D7D7D7"/>
<circle cx="404" cy="5" r="5" fill="#C8C8C8"/>
<circle cx="425" cy="5" r="5" fill="#D6D6D6"/>
<circle cx="446" cy="5" r="5" fill="#EBEBEB"/>
<circle cx="467" cy="5" r="5" fill="#EFEFEF"/>
<circle cx="488" cy="5" r="5" fill="#FAFAFA"/>
<circle cx="5" cy="25" r="5" fill="#CFCFCF"/>
<circle cx="26" cy="25" r="5" fill="#DFDFDF"/>
<circle cx="47" cy="25" r="5" fill="#E3E3E3"/>
<circle cx="68" cy="25" r="5" fill="#DADADA"/>
<circle cx="89" cy="25" r="5" fill="#FEFEFE"/>
<circle cx="110" cy="25" r="5" fill="#DCDCDC"/>
<circle cx="131" cy="25" r="5" fill="#EFEFEF"/>
<circle cx="152" cy="25" r="5" fill="#E3E3E3"/>
<circle cx="173" cy="25" r="5" fill="#CCCCCC"/>
<circle cx="194" cy="25" r="5" fill="#F8F8F8"/>
<circle cx="215" cy="25" r="5" fill="#D4D4D4"/>
<circle cx="236" cy="25" r="5" fill="#D8D8D8"/>
<circle cx="257" cy="25" r="5" fill="#E7E7E7"/>
<circle cx="278" cy="25" r="5" fill="#F3F3F3"/>
<circle cx="299" cy="25" r="5" fill="#D5D5D5"/>
<circle cx="320" cy="25" r="5" fill="#D4D4D4"/>
<circle cx="341" cy="25" r="5" fill="#E8E8E8"/>
<circle cx="362" cy="25" r="5" fill="#C9C9C9"/>
<circle cx="383" cy="25" r="5" fill="#DCDCDC"/>
<circle cx="404" cy="25" r="5" fill="#D1D1D1"/>
<circle cx="425" cy="25" r="5" fill="#EBEBEB"/>
<circle cx="446" cy="25" r="5" fill="#F6F6F6"/>
<circle cx="467" cy="25" r="5" fill="#CCCCCC"/>
<circle cx="488" cy="25" r="5" fill="#CECECE"/>
<circle cx="5" cy="46" r="5" fill="#CECECE"/>
<circle cx="26" cy="46" r="5" fill="#D0D0D0"/>
<circle cx="47" cy="46" r="5" fill="#D4D4D4"/>
<circle cx="68" cy="46" r="5" fill="#E5E5E5"/>
<circle cx="89" cy="46" r="5" fill="#DADADA"/>
<circle cx="110" cy="46" r="5" fill="#E0E0E0"/>
<circle cx="131" cy="46" r="5" fill="#E7E7E7"/>
<circle cx="152" cy="46" r="5" fill="#D0D0D0"/>
<circle cx="173" cy="46" r="5" fill="#DCDCDC"/>
<circle cx="194" cy="46" r="5" fill="#EDEDED"/>
<circle cx="215" cy="46" r="5" fill="white"/>
<circle cx="236" cy="46" r="5" fill="#ECECEC"/>
<circle cx="257" cy="46" r="5" fill="#D9D9D9"/>
<circle cx="278" cy="46" r="5" fill="#E4E4E4"/>
<circle cx="299" cy="46" r="5" fill="#D9D9D9"/>
<circle cx="320" cy="46" r="5" fill="#C8C8C8"/>
<circle cx="341" cy="46" r="5" fill="#F8F8F8"/>
<circle cx="362" cy="46" r="5" fill="#EAEAEA"/>
<circle cx="383" cy="46" r="5" fill="#E2E2E2"/>
<circle cx="404" cy="46" r="5" fill="#F7F7F7"/>
<circle cx="425" cy="46" r="5" fill="#CFCFCF"/>
<circle cx="446" cy="46" r="5" fill="#D0D0D0"/>
<circle cx="467" cy="46" r="5" fill="#D6D6D6"/>
<circle cx="488" cy="46" r="5" fill="#FEFEFE"/>
<circle cx="5" cy="66" r="5" fill="#FEFEFE"/>
<circle cx="26" cy="66" r="5" fill="#F6F6F6"/>
<circle cx="47" cy="66" r="5" fill="#DBDBDB"/>
<circle cx="68" cy="66" r="5" fill="#DDDDDD"/>
<circle cx="89" cy="66" r="5" fill="#FEFEFE"/>
<circle cx="110" cy="66" r="5" fill="#C8C8C8"/>
<circle cx="131" cy="66" r="5" fill="#F6F6F6"/>
<circle cx="152" cy="66" r="5" fill="#CACACA"/>
<circle cx="173" cy="66" r="5" fill="#F2F2F2"/>
<circle cx="194" cy="66" r="5" fill="#F3F3F3"/>
<circle cx="215" cy="66" r="5" fill="#EDEDED"/>
<circle cx="236" cy="66" r="5" fill="#F0F0F0"/>
<circle cx="257" cy="66" r="5" fill="#EDEDED"/>
<circle cx="278" cy="66" r="5" fill="#CACACA"/>
<circle cx="299" cy="66" r="5" fill="#EEEEEE"/>
<circle cx="320" cy="66" r="5" fill="#D5D5D5"/>
<circle cx="341" cy="66" r="5" fill="#CACACA"/>
<circle cx="362" cy="66" r="5" fill="#DCDCDC"/>
<circle cx="383" cy="66" r="5" fill="#F6F6F6"/>
<circle cx="404" cy="66" r="5" fill="#E5E5E5"/>
<circle cx="425" cy="66" r="5" fill="#C9C9C9"/>
<circle cx="446" cy="66" r="5" fill="#DFDFDF"/>
<circle cx="467" cy="66" r="5" fill="#CECECE"/>
<circle cx="488" cy="66" r="5" fill="#D7D7D7"/>
<circle cx="5" cy="84" r="5" fill="#E8E8E8"/>
<circle cx="26" cy="84" r="5" fill="#D6D6D6"/>
<circle cx="47" cy="84" r="5" fill="#CCCCCC"/>
<circle cx="68" cy="84" r="5" fill="#D2D2D2"/>
<circle cx="89" cy="84" r="5" fill="#FAFAFA"/>
<circle cx="110" cy="84" r="5" fill="#FEFEFE"/>
<circle cx="131" cy="84" r="5" fill="#F5F5F5"/>
<circle cx="152" cy="84" r="5" fill="#E6E6E6"/>
<circle cx="173" cy="84" r="5" fill="#D2D2D2"/>
<circle cx="194" cy="84" r="5" fill="#F2F2F2"/>
<circle cx="215" cy="84" r="5" fill="#F7F7F7"/>
<circle cx="236" cy="84" r="5" fill="#CECECE"/>
<circle cx="257" cy="84" r="5" fill="#C8C8C8"/>
<circle cx="278" cy="84" r="5" fill="#E7E7E7"/>
<circle cx="299" cy="84" r="5" fill="#DBDBDB"/>
<circle cx="320" cy="84" r="5" fill="#D4D4D4"/>
<circle cx="341" cy="84" r="5" fill="#CCCCCC"/>
<circle cx="362" cy="84" r="5" fill="#D1D1D1"/>
<circle cx="383" cy="84" r="5" fill="#D7D7D7"/>
<circle cx="404" cy="84" r="5" fill="#CCCCCC"/>
<circle cx="425" cy="84" r="5" fill="#F2F2F2"/>
<circle cx="446" cy="84" r="5" fill="#DBDBDB"/>
<circle cx="467" cy="84" r="5" fill="#E7E7E7"/>
<circle cx="488" cy="84" r="5" fill="#CBCBCB"/>
<circle cx="5" cy="104" r="5" fill="#DBDBDB"/>
<circle cx="26" cy="104" r="5" fill="#E1E1E1"/>
<circle cx="47" cy="104" r="5" fill="#D4D4D4"/>
<circle cx="68" cy="104" r="5" fill="#FBFBFB"/>
<circle cx="89" cy="104" r="5" fill="#D5D5D5"/>
<circle cx="110" cy="104" r="5" fill="#F2F2F2"/>
<circle cx="131" cy="104" r="5" fill="#EAEAEA"/>
<circle cx="152" cy="104" r="5" fill="#EEEEEE"/>
<circle cx="173" cy="104" r="5" fill="#F7F7F7"/>
<circle cx="194" cy="104" r="5" fill="#EDEDED"/>
<circle cx="215" cy="104" r="5" fill="#FEFEFE"/>
<circle cx="236" cy="104" r="5" fill="#E1E1E1"/>
<circle cx="257" cy="104" r="5" fill="#FAFAFA"/>
<circle cx="278" cy="104" r="5" fill="#FCFCFC"/>
<circle cx="299" cy="104" r="5" fill="#EBEBEB"/>
<circle cx="320" cy="104" r="5" fill="#ECECEC"/>
<circle cx="341" cy="104" r="5" fill="#D8D8D8"/>
<circle cx="362" cy="104" r="5" fill="#DFDFDF"/>
<circle cx="383" cy="104" r="5" fill="#E6E6E6"/>
<circle cx="404" cy="104" r="5" fill="#DDDDDD"/>
<circle cx="425" cy="104" r="5" fill="#FCFCFC"/>
<circle cx="446" cy="104" r="5" fill="#FEFEFE"/>
<circle cx="467" cy="104" r="5" fill="#DCDCDC"/>
<circle cx="488" cy="104" r="5" fill="#F6F6F6"/>
<circle cx="5" cy="125" r="5" fill="#EBEBEB"/>
<circle cx="26" cy="125" r="5" fill="#F5F5F5"/>
<circle cx="47" cy="125" r="5" fill="#EFEFEF"/>
<circle cx="68" cy="125" r="5" fill="white"/>
<circle cx="89" cy="125" r="5" fill="#E6E6E6"/>
<circle cx="110" cy="125" r="5" fill="white"/>
<circle cx="131" cy="125" r="5" fill="#D0D0D0"/>
<circle cx="152" cy="125" r="5" fill="#CBCBCB"/>
<circle cx="173" cy="125" r="5" fill="#E2E2E2"/>
<circle cx="194" cy="125" r="5" fill="#CDCDCD"/>
<circle cx="215" cy="125" r="5" fill="#E5E5E5"/>
<circle cx="236" cy="125" r="5" fill="#ECECEC"/>
<circle cx="257" cy="125" r="5" fill="#FAFAFA"/>
<circle cx="278" cy="125" r="5" fill="#F5F5F5"/>
<circle cx="299" cy="125" r="5" fill="#F7F7F7"/>
<circle cx="320" cy="125" r="5" fill="#F7F7F7"/>
<circle cx="341" cy="125" r="5" fill="#CCCCCC"/>
<circle cx="362" cy="125" r="5" fill="#F6F6F6"/>
<circle cx="383" cy="125" r="5" fill="#DBDBDB"/>
<circle cx="404" cy="125" r="5" fill="#DDDDDD"/>
<circle cx="425" cy="125" r="5" fill="#E5E5E5"/>
<circle cx="446" cy="125" r="5" fill="#CFCFCF"/>
<circle cx="467" cy="125" r="5" fill="#D4D4D4"/>
<circle cx="488" cy="125" r="5" fill="#CFCFCF"/>
<circle cx="5" cy="145" r="5" fill="#EEEEEE"/>
<circle cx="26" cy="145" r="5" fill="#E0E0E0"/>
<circle cx="47" cy="145" r="5" fill="#EEEEEE"/>
<circle cx="68" cy="145" r="5" fill="#F5F5F5"/>
<circle cx="89" cy="145" r="5" fill="#CACACA"/>
<circle cx="110" cy="145" r="5" fill="#D4D4D4"/>
<circle cx="131" cy="145" r="5" fill="#EAEAEA"/>
<circle cx="152" cy="145" r="5" fill="#DDDDDD"/>
<circle cx="173" cy="145" r="5" fill="#D3D3D3"/>
<circle cx="194" cy="145" r="5" fill="#DCDCDC"/>
<circle cx="215" cy="145" r="5" fill="#FCFCFC"/>
<circle cx="236" cy="145" r="5" fill="#DBDBDB"/>
<circle cx="257" cy="145" r="5" fill="#D6D6D6"/>
<circle cx="278" cy="145" r="5" fill="#C8C8C8"/>
<circle cx="299" cy="145" r="5" fill="#FBFBFB"/>
<circle cx="320" cy="145" r="5" fill="#C9C9C9"/>
<circle cx="341" cy="145" r="5" fill="#D2D2D2"/>
<circle cx="362" cy="145" r="5" fill="#CCCCCC"/>
<circle cx="383" cy="145" r="5" fill="#CDCDCD"/>
<circle cx="404" cy="145" r="5" fill="#C9C9C9"/>
<circle cx="425" cy="145" r="5" fill="#E4E4E4"/>
<circle cx="446" cy="145" r="5" fill="#F5F5F5"/>
<circle cx="467" cy="145" r="5" fill="#CBCBCB"/>
<circle cx="488" cy="145" r="5" fill="#EBEBEB"/>
<circle cx="5" cy="164" r="5" fill="#EBEBEB"/>
<circle cx="26" cy="164" r="5" fill="#D5D5D5"/>
<circle cx="47" cy="164" r="5" fill="#E4E4E4"/>
<circle cx="68" cy="164" r="5" fill="#E0E0E0"/>
<circle cx="89" cy="164" r="5" fill="#CFCFCF"/>
<circle cx="110" cy="164" r="5" fill="#F0F0F0"/>
<circle cx="131" cy="164" r="5" fill="#EBEBEB"/>
<circle cx="152" cy="164" r="5" fill="#F3F3F3"/>
<circle cx="173" cy="164" r="5" fill="#EBEBEB"/>
<circle cx="194" cy="164" r="5" fill="#EAEAEA"/>
<circle cx="215" cy="164" r="5" fill="#D2D2D2"/>
<circle cx="236" cy="164" r="5" fill="#F0F0F0"/>
<circle cx="257" cy="164" r="5" fill="#F3F3F3"/>
<circle cx="278" cy="164" r="5" fill="#EFEFEF"/>
<circle cx="299" cy="164" r="5" fill="#ECECEC"/>
<circle cx="320" cy="164" r="5" fill="#E7E7E7"/>
<circle cx="341" cy="164" r="5" fill="#DCDCDC"/>
<circle cx="362" cy="164" r="5" fill="#ECECEC"/>
<circle cx="383" cy="164" r="5" fill="#E7E7E7"/>
<circle cx="404" cy="164" r="5" fill="#F1F1F1"/>
<circle cx="425" cy="164" r="5" fill="#CFCFCF"/>
<circle cx="446" cy="164" r="5" fill="#F0F0F0"/>
<circle cx="467" cy="164" r="5" fill="#C9C9C9"/>
<circle cx="488" cy="164" r="5" fill="#CCCCCC"/>
<circle cx="5" cy="184" r="5" fill="#F3F3F3"/>
<circle cx="26" cy="184" r="5" fill="#FDFDFD"/>
<circle cx="47" cy="184" r="5" fill="#F1F1F1"/>
<circle cx="68" cy="184" r="5" fill="#E5E5E5"/>
<circle cx="89" cy="184" r="5" fill="#DCDCDC"/>
<circle cx="110" cy="184" r="5" fill="#D2D2D2"/>
<circle cx="131" cy="184" r="5" fill="#DCDCDC"/>
<circle cx="152" cy="184" r="5" fill="#E6E6E6"/>
<circle cx="173" cy="184" r="5" fill="#D6D6D6"/>
<circle cx="194" cy="184" r="5" fill="#DBDBDB"/>
<circle cx="215" cy="184" r="5" fill="#E6E6E6"/>
<circle cx="236" cy="184" r="5" fill="#F3F3F3"/>
<circle cx="257" cy="184" r="5" fill="#FAFAFA"/>
<circle cx="278" cy="184" r="5" fill="#ECECEC"/>
<circle cx="299" cy="184" r="5" fill="#DFDFDF"/>
<circle cx="320" cy="184" r="5" fill="#DCDCDC"/>
<circle cx="341" cy="184" r="5" fill="#F2F2F2"/>
<circle cx="362" cy="184" r="5" fill="white"/>
<circle cx="383" cy="184" r="5" fill="#FBFBFB"/>
<circle cx="404" cy="184" r="5" fill="#F1F1F1"/>
<circle cx="425" cy="184" r="5" fill="#F7F7F7"/>
<circle cx="446" cy="184" r="5" fill="#D2D2D2"/>
<circle cx="467" cy="184" r="5" fill="white"/>
<circle cx="488" cy="184" r="5" fill="#D4D4D4"/>
<circle cx="5" cy="205" r="5" fill="#CECECE"/>
<circle cx="26" cy="205" r="5" fill="#E2E2E2"/>
<circle cx="47" cy="205" r="5" fill="#DFDFDF"/>
<circle cx="68" cy="205" r="5" fill="#E2E2E2"/>
<circle cx="89" cy="205" r="5" fill="#D4D4D4"/>
<circle cx="110" cy="205" r="5" fill="#E1E1E1"/>
<circle cx="131" cy="205" r="5" fill="#F9F9F9"/>
<circle cx="152" cy="205" r="5" fill="#DCDCDC"/>
<circle cx="173" cy="205" r="5" fill="#F8F8F8"/>
<circle cx="194" cy="205" r="5" fill="#F2F2F2"/>
<circle cx="215" cy="205" r="5" fill="#D9D9D9"/>
<circle cx="236" cy="205" r="5" fill="#DBDBDB"/>
<circle cx="257" cy="205" r="5" fill="#E4E4E4"/>
<circle cx="278" cy="205" r="5" fill="#D4D4D4"/>
<circle cx="299" cy="205" r="5" fill="#EBEBEB"/>
<circle cx="320" cy="205" r="5" fill="#D1D1D1"/>
<circle cx="341" cy="205" r="5" fill="#E1E1E1"/>
<circle cx="362" cy="205" r="5" fill="#D2D2D2"/>
<circle cx="383" cy="205" r="5" fill="#F3F3F3"/>
<circle cx="404" cy="205" r="5" fill="#CBCBCB"/>
<circle cx="425" cy="205" r="5" fill="#FBFBFB"/>
<circle cx="446" cy="205" r="5" fill="#DCDCDC"/>
<circle cx="467" cy="205" r="5" fill="#F5F5F5"/>
<circle cx="488" cy="205" r="5" fill="#F2F2F2"/>
<circle cx="5" cy="225" r="5" fill="#F5F5F5"/>
<circle cx="26" cy="225" r="5" fill="#FCFCFC"/>
<circle cx="47" cy="225" r="5" fill="#CFCFCF"/>
<circle cx="68" cy="225" r="5" fill="#E2E2E2"/>
<circle cx="89" cy="225" r="5" fill="#D6D6D6"/>
<circle cx="110" cy="225" r="5" fill="#F5F5F5"/>
<circle cx="131" cy="225" r="5" fill="#FDFDFD"/>
<circle cx="152" cy="225" r="5" fill="#DFDFDF"/>
<circle cx="173" cy="225" r="5" fill="#F4F4F4"/>
<circle cx="194" cy="225" r="5" fill="#E0E0E0"/>
<circle cx="215" cy="225" r="5" fill="#EFEFEF"/>
<circle cx="236" cy="225" r="5" fill="#FBFBFB"/>
<circle cx="257" cy="225" r="5" fill="#D7D7D7"/>
<circle cx="278" cy="225" r="5" fill="#E2E2E2"/>
<circle cx="299" cy="225" r="5" fill="#E1E1E1"/>
<circle cx="320" cy="225" r="5" fill="#FBFBFB"/>
<circle cx="341" cy="225" r="5" fill="#D8D8D8"/>
<circle cx="362" cy="225" r="5" fill="#FDFDFD"/>
<circle cx="383" cy="225" r="5" fill="#F3F3F3"/>
<circle cx="404" cy="225" r="5" fill="#D5D5D5"/>
<circle cx="425" cy="225" r="5" fill="#D2D2D2"/>
<circle cx="446" cy="225" r="5" fill="#EEEEEE"/>
<circle cx="467" cy="225" r="5" fill="#D8D8D8"/>
<circle cx="488" cy="225" r="5" fill="#FAFAFA"/>
<circle cx="5" cy="243" r="5" fill="#CCCCCC"/>
<circle cx="26" cy="243" r="5" fill="#F7F7F7"/>
<circle cx="47" cy="243" r="5" fill="#FEFEFE"/>
<circle cx="68" cy="243" r="5" fill="#CFCFCF"/>
<circle cx="89" cy="243" r="5" fill="#F4F4F4"/>
<circle cx="110" cy="243" r="5" fill="#E7E7E7"/>
<circle cx="131" cy="243" r="5" fill="#CBCBCB"/>
<circle cx="152" cy="243" r="5" fill="#EDEDED"/>
<circle cx="173" cy="243" r="5" fill="#CDCDCD"/>
<circle cx="194" cy="243" r="5" fill="#D9D9D9"/>
<circle cx="215" cy="243" r="5" fill="#F6F6F6"/>
<circle cx="236" cy="243" r="5" fill="#CACACA"/>
<circle cx="257" cy="243" r="5" fill="#FDFDFD"/>
<circle cx="278" cy="243" r="5" fill="#CECECE"/>
<circle cx="299" cy="243" r="5" fill="#EBEBEB"/>
<circle cx="320" cy="243" r="5" fill="#CBCBCB"/>
<circle cx="341" cy="243" r="5" fill="#E8E8E8"/>
<circle cx="362" cy="243" r="5" fill="#FBFBFB"/>
<circle cx="383" cy="243" r="5" fill="#F0F0F0"/>
<circle cx="404" cy="243" r="5" fill="#E5E5E5"/>
<circle cx="425" cy="243" r="5" fill="#E5E5E5"/>
<circle cx="446" cy="243" r="5" fill="#F6F6F6"/>
<circle cx="467" cy="243" r="5" fill="#F7F7F7"/>
<circle cx="488" cy="243" r="5" fill="#FBFBFB"/>
<circle cx="5" cy="263" r="5" fill="#E7E7E7"/>
<circle cx="26" cy="263" r="5" fill="#CECECE"/>
<circle cx="47" cy="263" r="5" fill="#D0D0D0"/>
<circle cx="68" cy="263" r="5" fill="#D0D0D0"/>
<circle cx="89" cy="263" r="5" fill="#E6E6E6"/>
<circle cx="110" cy="263" r="5" fill="#D1D1D1"/>
<circle cx="131" cy="263" r="5" fill="#FBFBFB"/>
<circle cx="152" cy="263" r="5" fill="#E6E6E6"/>
<circle cx="173" cy="263" r="5" fill="#EFEFEF"/>
<circle cx="194" cy="263" r="5" fill="#FCFCFC"/>
<circle cx="215" cy="263" r="5" fill="#D1D1D1"/>
<circle cx="236" cy="263" r="5" fill="#F8F8F8"/>
<circle cx="257" cy="263" r="5" fill="#CFCFCF"/>
<circle cx="278" cy="263" r="5" fill="white"/>
<circle cx="299" cy="263" r="5" fill="#DBDBDB"/>
<circle cx="320" cy="263" r="5" fill="#F0F0F0"/>
<circle cx="341" cy="263" r="5" fill="#E5E5E5"/>
<circle cx="362" cy="263" r="5" fill="#D9D9D9"/>
<circle cx="383" cy="263" r="5" fill="#CFCFCF"/>
<circle cx="404" cy="263" r="5" fill="#DFDFDF"/>
<circle cx="425" cy="263" r="5" fill="#F5F5F5"/>
<circle cx="446" cy="263" r="5" fill="#D9D9D9"/>
<circle cx="467" cy="263" r="5" fill="#CECECE"/>
<circle cx="488" cy="263" r="5" fill="white"/>
<circle cx="5" cy="284" r="5" fill="#FBFBFB"/>
<circle cx="26" cy="284" r="5" fill="#F2F2F2"/>
<circle cx="47" cy="284" r="5" fill="#E5E5E5"/>
<circle cx="68" cy="284" r="5" fill="#EDEDED"/>
<circle cx="89" cy="284" r="5" fill="#E4E4E4"/>
<circle cx="110" cy="284" r="5" fill="#FEFEFE"/>
<circle cx="131" cy="284" r="5" fill="#FEFEFE"/>
<circle cx="152" cy="284" r="5" fill="#D0D0D0"/>
<circle cx="173" cy="284" r="5" fill="#D7D7D7"/>
<circle cx="194" cy="284" r="5" fill="#DCDCDC"/>
<circle cx="215" cy="284" r="5" fill="#E8E8E8"/>
<path d="M241 284C241 286.761 238.761 289 236 289C233.239 289 231 286.761 231 284C231 281.239 233.239 279 236 279C238.761 279 241 281.239 241 284Z" fill="#FEFEFE"/>
<circle cx="257" cy="284" r="5" fill="#D9D9D9"/>
<circle cx="278" cy="284" r="5" fill="#FCFCFC"/>
<circle cx="299" cy="284" r="5" fill="#E8E8E8"/>
<circle cx="320" cy="284" r="5" fill="#D7D7D7"/>
<circle cx="341" cy="284" r="5" fill="#FBFBFB"/>
<circle cx="362" cy="284" r="5" fill="#F4F4F4"/>
<circle cx="383" cy="284" r="5" fill="#ECECEC"/>
<circle cx="404" cy="284" r="5" fill="#FDFDFD"/>
<circle cx="425" cy="284" r="5" fill="#EDEDED"/>
<circle cx="446" cy="284" r="5" fill="#D7D7D7"/>
<circle cx="467" cy="284" r="5" fill="#FBFBFB"/>
<circle cx="488" cy="284" r="5" fill="#E1E1E1"/>
<circle cx="5" cy="304" r="5" fill="#F5F5F5"/>
<circle cx="26" cy="304" r="5" fill="#F1F1F1"/>
<circle cx="47" cy="304" r="5" fill="#ECECEC"/>
<circle cx="68" cy="304" r="5" fill="#CDCDCD"/>
<circle cx="89" cy="304" r="5" fill="#D9D9D9"/>
<circle cx="110" cy="304" r="5" fill="white"/>
<circle cx="131" cy="304" r="5" fill="#F2F2F2"/>
<circle cx="152" cy="304" r="5" fill="#E6E6E6"/>
<circle cx="173" cy="304" r="5" fill="#CECECE"/>
<circle cx="194" cy="304" r="5" fill="#E0E0E0"/>
<circle cx="215" cy="304" r="5" fill="#DCDCDC"/>
<circle cx="236" cy="304" r="5" fill="#EFEFEF"/>
<circle cx="257" cy="304" r="5" fill="#FCFCFC"/>
<circle cx="278" cy="304" r="5" fill="#F5F5F5"/>
<circle cx="299" cy="304" r="5" fill="#FDFDFD"/>
<circle cx="320" cy="304" r="5" fill="#F0F0F0"/>
<circle cx="341" cy="304" r="5" fill="#D9D9D9"/>
<circle cx="362" cy="304" r="5" fill="#DDDDDD"/>
<circle cx="383" cy="304" r="5" fill="#E1E1E1"/>
<circle cx="404" cy="304" r="5" fill="#E0E0E0"/>
<circle cx="425" cy="304" r="5" fill="#FBFBFB"/>
<circle cx="446" cy="304" r="5" fill="#EBEBEB"/>
<circle cx="467" cy="304" r="5" fill="#E4E4E4"/>
<circle cx="488" cy="304" r="5" fill="#E0E0E0"/>
<circle cx="5" cy="323" r="5" fill="#EFEFEF"/>
<circle cx="26" cy="323" r="5" fill="#C9C9C9"/>
<circle cx="47" cy="323" r="5" fill="#DBDBDB"/>
<circle cx="68" cy="323" r="5" fill="#CECECE"/>
<circle cx="89" cy="323" r="5" fill="#F8F8F8"/>
<circle cx="110" cy="323" r="5" fill="#CDCDCD"/>
<circle cx="131" cy="323" r="5" fill="#C9C9C9"/>
<circle cx="152" cy="323" r="5" fill="#D7D7D7"/>
<circle cx="173" cy="323" r="5" fill="#D5D5D5"/>
<circle cx="194" cy="323" r="5" fill="#E7E7E7"/>
<circle cx="215" cy="323" r="5" fill="#F2F2F2"/>
<circle cx="236" cy="323" r="5" fill="#F6F6F6"/>
<circle cx="257" cy="323" r="5" fill="#F5F5F5"/>
<circle cx="278" cy="323" r="5" fill="#D6D6D6"/>
<circle cx="299" cy="323" r="5" fill="#FBFBFB"/>
<circle cx="320" cy="323" r="5" fill="#F6F6F6"/>
<circle cx="341" cy="323" r="5" fill="#DDDDDD"/>
<circle cx="362" cy="323" r="5" fill="#FCFCFC"/>
<circle cx="383" cy="323" r="5" fill="#FBFBFB"/>
<circle cx="404" cy="323" r="5" fill="#CFCFCF"/>
<circle cx="425" cy="323" r="5" fill="#E8E8E8"/>
<circle cx="446" cy="323" r="5" fill="#DDDDDD"/>
<circle cx="467" cy="323" r="5" fill="#E3E3E3"/>
<circle cx="488" cy="323" r="5" fill="#DEDEDE"/>
<circle cx="5" cy="343" r="5" fill="#E0E0E0"/>
<circle cx="26" cy="343" r="5" fill="#C9C9C9"/>
<circle cx="47" cy="343" r="5" fill="#F6F6F6"/>
<circle cx="68" cy="343" r="5" fill="#D1D1D1"/>
<circle cx="89" cy="343" r="5" fill="#F1F1F1"/>
<circle cx="110" cy="343" r="5" fill="#EAEAEA"/>
<circle cx="131" cy="343" r="5" fill="#EDEDED"/>
<circle cx="152" cy="343" r="5" fill="#DCDCDC"/>
<circle cx="173" cy="343" r="5" fill="#CACACA"/>
<circle cx="194" cy="343" r="5" fill="#D6D6D6"/>
<circle cx="215" cy="343" r="5" fill="#F0F0F0"/>
<circle cx="236" cy="343" r="5" fill="#F7F7F7"/>
<circle cx="257" cy="343" r="5" fill="#E8E8E8"/>
<circle cx="278" cy="343" r="5" fill="#FCFCFC"/>
<circle cx="299" cy="343" r="5" fill="#FCFCFC"/>
<circle cx="320" cy="343" r="5" fill="#DADADA"/>
<circle cx="341" cy="343" r="5" fill="#F5F5F5"/>
<circle cx="362" cy="343" r="5" fill="#F3F3F3"/>
<circle cx="383" cy="343" r="5" fill="#EFEFEF"/>
<circle cx="404" cy="343" r="5" fill="#FEFEFE"/>
<circle cx="425" cy="343" r="5" fill="#F5F5F5"/>
<circle cx="446" cy="343" r="5" fill="#FAFAFA"/>
<circle cx="467" cy="343" r="5" fill="#F1F1F1"/>
<circle cx="488" cy="343" r="5" fill="#EDEDED"/>
<circle cx="5" cy="364" r="5" fill="#F0F0F0"/>
<circle cx="26" cy="364" r="5" fill="#FBFBFB"/>
<circle cx="47" cy="364" r="5" fill="#DFDFDF"/>
<circle cx="68" cy="364" r="5" fill="#E4E4E4"/>
<circle cx="89" cy="364" r="5" fill="#D6D6D6"/>
<circle cx="110" cy="364" r="5" fill="#DBDBDB"/>
<circle cx="131" cy="364" r="5" fill="#E6E6E6"/>
<circle cx="152" cy="364" r="5" fill="#D7D7D7"/>
<circle cx="173" cy="364" r="5" fill="#EEEEEE"/>
<circle cx="194" cy="364" r="5" fill="#DCDCDC"/>
<circle cx="215" cy="364" r="5" fill="#F5F5F5"/>
<circle cx="236" cy="364" r="5" fill="#EEEEEE"/>
<circle cx="257" cy="364" r="5" fill="#E5E5E5"/>
<circle cx="278" cy="364" r="5" fill="#EDEDED"/>
<circle cx="299" cy="364" r="5" fill="#D3D3D3"/>
<circle cx="320" cy="364" r="5" fill="#FAFAFA"/>
<circle cx="341" cy="364" r="5" fill="#EAEAEA"/>
<circle cx="362" cy="364" r="5" fill="#E3E3E3"/>
<circle cx="383" cy="364" r="5" fill="#EBEBEB"/>
<circle cx="404" cy="364" r="5" fill="#E5E5E5"/>
<circle cx="425" cy="364" r="5" fill="#E2E2E2"/>
<circle cx="446" cy="364" r="5" fill="#ECECEC"/>
<circle cx="467" cy="364" r="5" fill="#DADADA"/>
<circle cx="488" cy="364" r="5" fill="#DDDDDD"/>
<circle cx="5" cy="384" r="5" fill="#F5F5F5"/>
<circle cx="26" cy="384" r="5" fill="#E4E4E4"/>
<circle cx="47" cy="384" r="5" fill="#F1F1F1"/>
<circle cx="68" cy="384" r="5" fill="#E6E6E6"/>
<circle cx="89" cy="384" r="5" fill="#EAEAEA"/>
<circle cx="110" cy="384" r="5" fill="#C9C9C9"/>
<circle cx="131" cy="384" r="5" fill="#D9D9D9"/>
<circle cx="152" cy="384" r="5" fill="#EDEDED"/>
<circle cx="173" cy="384" r="5" fill="#DDDDDD"/>
<circle cx="194" cy="384" r="5" fill="#CDCDCD"/>
<circle cx="215" cy="384" r="5" fill="#DBDBDB"/>
<circle cx="236" cy="384" r="5" fill="#D9D9D9"/>
<circle cx="257" cy="384" r="5" fill="#F1F1F1"/>
<circle cx="278" cy="384" r="5" fill="#F7F7F7"/>
<circle cx="299" cy="384" r="5" fill="#F7F7F7"/>
<circle cx="320" cy="384" r="5" fill="#D6D6D6"/>
<circle cx="341" cy="384" r="5" fill="#F9F9F9"/>
<circle cx="362" cy="384" r="5" fill="#F6F6F6"/>
<circle cx="383" cy="384" r="5" fill="#D4D4D4"/>
<circle cx="404" cy="384" r="5" fill="#DADADA"/>
<circle cx="425" cy="384" r="5" fill="#EBEBEB"/>
<circle cx="446" cy="384" r="5" fill="#F2F2F2"/>
<circle cx="467" cy="384" r="5" fill="#D3D3D3"/>
<circle cx="488" cy="384" r="5" fill="#D5D5D5"/>
<circle cx="5" cy="402" r="5" fill="#FCFCFC"/>
<circle cx="26" cy="402" r="5" fill="#F5F5F5"/>
<circle cx="47" cy="402" r="5" fill="#E5E5E5"/>
<circle cx="68" cy="402" r="5" fill="#CACACA"/>
<circle cx="89" cy="402" r="5" fill="#E3E3E3"/>
<circle cx="110" cy="402" r="5" fill="#D8D8D8"/>
<circle cx="131" cy="402" r="5" fill="#D5D5D5"/>
<circle cx="152" cy="402" r="5" fill="#CFCFCF"/>
<circle cx="173" cy="402" r="5" fill="#CACACA"/>
<circle cx="194" cy="402" r="5" fill="#FBFBFB"/>
<circle cx="215" cy="402" r="5" fill="#E8E8E8"/>
<circle cx="236" cy="402" r="5" fill="#E5E5E5"/>
<circle cx="257" cy="402" r="5" fill="#E0E0E0"/>
<circle cx="278" cy="402" r="5" fill="#F9F9F9"/>
<circle cx="299" cy="402" r="5" fill="#E1E1E1"/>
<circle cx="320" cy="402" r="5" fill="#C9C9C9"/>
<circle cx="341" cy="402" r="5" fill="#F0F0F0"/>
<circle cx="362" cy="402" r="5" fill="#FAFAFA"/>
<circle cx="383" cy="402" r="5" fill="#F0F0F0"/>
<circle cx="404" cy="402" r="5" fill="#F8F8F8"/>
<circle cx="425" cy="402" r="5" fill="#E4E4E4"/>
<circle cx="446" cy="402" r="5" fill="#CCCCCC"/>
<circle cx="467" cy="402" r="5" fill="#E1E1E1"/>
<circle cx="488" cy="402" r="5" fill="#D8D8D8"/>
<circle cx="5" cy="422" r="5" fill="#E7E7E7"/>
<circle cx="26" cy="422" r="5" fill="#CFCFCF"/>
<circle cx="47" cy="422" r="5" fill="#C9C9C9"/>
<circle cx="68" cy="422" r="5" fill="#F0F0F0"/>
<circle cx="89" cy="422" r="5" fill="#F9F9F9"/>
<circle cx="110" cy="422" r="5" fill="#D8D8D8"/>
<circle cx="131" cy="422" r="5" fill="#FDFDFD"/>
<circle cx="152" cy="422" r="5" fill="#D7D7D7"/>
<circle cx="173" cy="422" r="5" fill="#DFDFDF"/>
<circle cx="194" cy="422" r="5" fill="#DBDBDB"/>
<circle cx="215" cy="422" r="5" fill="#DDDDDD"/>
<circle cx="236" cy="422" r="5" fill="#F0F0F0"/>
<circle cx="257" cy="422" r="5" fill="#D3D3D3"/>
<circle cx="278" cy="422" r="5" fill="#DADADA"/>
<circle cx="299" cy="422" r="5" fill="#EAEAEA"/>
<circle cx="320" cy="422" r="5" fill="#FBFBFB"/>
<circle cx="341" cy="422" r="5" fill="#D5D5D5"/>
<circle cx="362" cy="422" r="5" fill="#F5F5F5"/>
<circle cx="383" cy="422" r="5" fill="#FDFDFD"/>
<circle cx="404" cy="422" r="5" fill="#D0D0D0"/>
<circle cx="425" cy="422" r="5" fill="#D8D8D8"/>
<circle cx="446" cy="422" r="5" fill="#F3F3F3"/>
<circle cx="467" cy="422" r="5" fill="#EDEDED"/>
<circle cx="488" cy="422" r="5" fill="#D7D7D7"/>
<circle cx="5" cy="443" r="5" fill="#E8E8E8"/>
<circle cx="26" cy="443" r="5" fill="#EEEEEE"/>
<circle cx="47" cy="443" r="5" fill="#F8F8F8"/>
<circle cx="68" cy="443" r="5" fill="#D4D4D4"/>
<circle cx="89" cy="443" r="5" fill="#CECECE"/>
<circle cx="110" cy="443" r="5" fill="#F7F7F7"/>
<circle cx="131" cy="443" r="5" fill="#F5F5F5"/>
<circle cx="152" cy="443" r="5" fill="#E1E1E1"/>
<circle cx="173" cy="443" r="5" fill="#DADADA"/>
<circle cx="194" cy="443" r="5" fill="#FCFCFC"/>
<circle cx="215" cy="443" r="5" fill="#E6E6E6"/>
<circle cx="236" cy="443" r="5" fill="#CCCCCC"/>
<circle cx="257" cy="443" r="5" fill="#E6E6E6"/>
<circle cx="278" cy="443" r="5" fill="#E0E0E0"/>
<circle cx="299" cy="443" r="5" fill="#EEEEEE"/>
<circle cx="320" cy="443" r="5" fill="#E6E6E6"/>
<circle cx="341" cy="443" r="5" fill="#FEFEFE"/>
<circle cx="362" cy="443" r="5" fill="#CECECE"/>
<circle cx="383" cy="443" r="5" fill="#DBDBDB"/>
<circle cx="404" cy="443" r="5" fill="#EBEBEB"/>
<circle cx="425" cy="443" r="5" fill="#F0F0F0"/>
<circle cx="446" cy="443" r="5" fill="#CBCBCB"/>
<circle cx="467" cy="443" r="5" fill="#D9D9D9"/>
<circle cx="488" cy="443" r="5" fill="#E3E3E3"/>
<circle cx="5" cy="463" r="5" fill="#DCDCDC"/>
<circle cx="26" cy="463" r="5" fill="#F5F5F5"/>
<circle cx="47" cy="463" r="5" fill="#DCDCDC"/>
<circle cx="68" cy="463" r="5" fill="#EFEFEF"/>
<circle cx="89" cy="463" r="5" fill="#FEFEFE"/>
<circle cx="110" cy="463" r="5" fill="#DFDFDF"/>
<circle cx="131" cy="463" r="5" fill="#D7D7D7"/>
<circle cx="152" cy="463" r="5" fill="#F9F9F9"/>
<circle cx="173" cy="463" r="5" fill="#D6D6D6"/>
<circle cx="194" cy="463" r="5" fill="#EAEAEA"/>
<circle cx="215" cy="463" r="5" fill="#E7E7E7"/>
<circle cx="236" cy="463" r="5" fill="#C8C8C8"/>
<circle cx="257" cy="463" r="5" fill="#E1E1E1"/>
<circle cx="278" cy="463" r="5" fill="#E0E0E0"/>
<circle cx="299" cy="463" r="5" fill="#DFDFDF"/>
<circle cx="320" cy="463" r="5" fill="#E7E7E7"/>
<circle cx="341" cy="463" r="5" fill="#E1E1E1"/>
<circle cx="362" cy="463" r="5" fill="#F7F7F7"/>
<circle cx="383" cy="463" r="5" fill="#DBDBDB"/>
<circle cx="404" cy="463" r="5" fill="#F2F2F2"/>
<circle cx="425" cy="463" r="5" fill="#D8D8D8"/>
<circle cx="446" cy="463" r="5" fill="#EEEEEE"/>
<circle cx="467" cy="463" r="5" fill="#E6E6E6"/>
<circle cx="488" cy="463" r="5" fill="#E2E2E2"/>
<circle cx="5" cy="482" r="5" fill="#DDDDDD"/>
<circle cx="26" cy="482" r="5" fill="#E7E7E7"/>
<circle cx="47" cy="482" r="5" fill="#F2F2F2"/>
<circle cx="68" cy="482" r="5" fill="#F2F2F2"/>
<circle cx="89" cy="482" r="5" fill="#D2D2D2"/>
<circle cx="110" cy="482" r="5" fill="#E2E2E2"/>
<circle cx="131" cy="482" r="5" fill="#E1E1E1"/>
<circle cx="152" cy="482" r="5" fill="#D0D0D0"/>
<circle cx="173" cy="482" r="5" fill="#E5E5E5"/>
<circle cx="194" cy="482" r="5" fill="#F5F5F5"/>
<circle cx="215" cy="482" r="5" fill="#DFDFDF"/>
<circle cx="236" cy="482" r="5" fill="#FBFBFB"/>
<circle cx="257" cy="482" r="5" fill="#F1F1F1"/>
<circle cx="278" cy="482" r="5" fill="#D7D7D7"/>
<circle cx="299" cy="482" r="5" fill="#F9F9F9"/>
<circle cx="320" cy="482" r="5" fill="#F7F7F7"/>
<circle cx="341" cy="482" r="5" fill="#E8E8E8"/>
<circle cx="362" cy="482" r="5" fill="#DADADA"/>
<circle cx="383" cy="482" r="5" fill="#E4E4E4"/>
<circle cx="404" cy="482" r="5" fill="#EEEEEE"/>
<circle cx="425" cy="482" r="5" fill="#C8C8C8"/>
<circle cx="446" cy="482" r="5" fill="#D2D2D2"/>
<circle cx="467" cy="482" r="5" fill="#E3E3E3"/>
<circle cx="488" cy="482" r="5" fill="#EBEBEB"/>
<circle cx="5" cy="502" r="5" fill="#FBFBFB"/>
<circle cx="26" cy="502" r="5" fill="#CBCBCB"/>
<circle cx="47" cy="502" r="5" fill="#D2D2D2"/>
<circle cx="68" cy="502" r="5" fill="#D4D4D4"/>
<circle cx="89" cy="502" r="5" fill="#E8E8E8"/>
<circle cx="110" cy="502" r="5" fill="#D5D5D5"/>
<circle cx="131" cy="502" r="5" fill="#F3F3F3"/>
<circle cx="152" cy="502" r="5" fill="#F1F1F1"/>
<circle cx="173" cy="502" r="5" fill="#D2D2D2"/>
<circle cx="194" cy="502" r="5" fill="#F2F2F2"/>
<circle cx="215" cy="502" r="5" fill="#E8E8E8"/>
<circle cx="236" cy="502" r="5" fill="#FAFAFA"/>
<circle cx="257" cy="502" r="5" fill="#F1F1F1"/>
<circle cx="278" cy="502" r="5" fill="#F0F0F0"/>
<circle cx="299" cy="502" r="5" fill="#DFDFDF"/>
<circle cx="320" cy="502" r="5" fill="#CACACA"/>
<circle cx="341" cy="502" r="5" fill="#DFDFDF"/>
<circle cx="362" cy="502" r="5" fill="#D4D4D4"/>
<circle cx="383" cy="502" r="5" fill="#FAFAFA"/>
<circle cx="404" cy="502" r="5" fill="#E2E2E2"/>
<circle cx="425" cy="502" r="5" fill="#EFEFEF"/>
<circle cx="446" cy="502" r="5" fill="#FDFDFD"/>
<circle cx="467" cy="502" r="5" fill="#D0D0D0"/>
<circle cx="488" cy="502" r="5" fill="#F6F6F6"/>
</svg>
