<svg width="493" height="507" viewBox="0 0 493 507" fill="none" xmlns="http://www.w3.org/2000/svg">
<circle cx="5" cy="5" r="5" fill="#CECECE"/>
<circle cx="26" cy="5" r="5" fill="#C0C0C0"/>
<circle cx="47" cy="5" r="5" fill="#B8B8B8"/>
<circle cx="68" cy="5" r="5" fill="#A4A4A4"/>
<circle cx="89" cy="5" r="5" fill="#D1D1D1"/>
<circle cx="110" cy="5" r="5" fill="#8C8C8C"/>
<circle cx="131" cy="5" r="5" fill="#B6B6B6"/>
<circle cx="152" cy="5" r="5" fill="#BBBBBB"/>
<circle cx="173" cy="5" r="5" fill="#ACACAC"/>
<circle cx="194" cy="5" r="5" fill="#D6D6D6"/>
<circle cx="215" cy="5" r="5" fill="#B1B1B1"/>
<circle cx="236" cy="5" r="5" fill="#8A8A8A"/>
<circle cx="257" cy="5" r="5" fill="#939393"/>
<circle cx="278" cy="5" r="5" fill="#DDDDDD"/>
<circle cx="299" cy="5" r="5" fill="#D8D8D8"/>
<circle cx="320" cy="5" r="5" fill="#A5A5A5"/>
<circle cx="341" cy="5" r="5" fill="#939393"/>
<circle cx="362" cy="5" r="5" fill="#8E8E8E"/>
<circle cx="383" cy="5" r="5" fill="#898989"/>
<circle cx="404" cy="5" r="5" fill="#CECECE"/>
<circle cx="425" cy="5" r="5" fill="#D1D1D1"/>
<circle cx="446" cy="5" r="5" fill="#C6C6C6"/>
<circle cx="467" cy="5" r="5" fill="#CDCDCD"/>
<circle cx="488" cy="5" r="5" fill="#CECECE"/>
<circle cx="5" cy="25" r="5" fill="#DCDCDC"/>
<circle cx="26" cy="25" r="5" fill="#8C8C8C"/>
<circle cx="47" cy="25" r="5" fill="#BCBCBC"/>
<circle cx="68" cy="25" r="5" fill="#B3B3B3"/>
<circle cx="89" cy="25" r="5" fill="#B0B0B0"/>
<circle cx="110" cy="25" r="5" fill="#A4A4A4"/>
<circle cx="131" cy="25" r="5" fill="#919191"/>
<circle cx="152" cy="25" r="5" fill="#C4C4C4"/>
<circle cx="173" cy="25" r="5" fill="#BABABA"/>
<circle cx="194" cy="25" r="5" fill="#969696"/>
<circle cx="215" cy="25" r="5" fill="#9F9F9F"/>
<circle cx="236" cy="25" r="5" fill="#8C8C8C"/>
<circle cx="257" cy="25" r="5" fill="#CCCCCC"/>
<circle cx="278" cy="25" r="5" fill="#8F8F8F"/>
<circle cx="299" cy="25" r="5" fill="#DDDDDD"/>
<circle cx="320" cy="25" r="5" fill="#B8B8B8"/>
<circle cx="341" cy="25" r="5" fill="#BBBBBB"/>
<circle cx="362" cy="25" r="5" fill="#C3C3C3"/>
<circle cx="383" cy="25" r="5" fill="#B0B0B0"/>
<circle cx="404" cy="25" r="5" fill="#B9B9B9"/>
<circle cx="425" cy="25" r="5" fill="#8C8C8C"/>
<circle cx="446" cy="25" r="5" fill="#B0B0B0"/>
<circle cx="467" cy="25" r="5" fill="#D0D0D0"/>
<circle cx="488" cy="25" r="5" fill="#D1D1D1"/>
<circle cx="5" cy="46" r="5" fill="#919191"/>
<circle cx="26" cy="46" r="5" fill="#CCCCCC"/>
<circle cx="47" cy="46" r="5" fill="#8B8B8B"/>
<circle cx="68" cy="46" r="5" fill="#A9A9A9"/>
<circle cx="89" cy="46" r="5" fill="#AAAAAA"/>
<circle cx="110" cy="46" r="5" fill="#D1D1D1"/>
<circle cx="131" cy="46" r="5" fill="#B2B2B2"/>
<circle cx="152" cy="46" r="5" fill="#BFBFBF"/>
<circle cx="173" cy="46" r="5" fill="#A9A9A9"/>
<circle cx="194" cy="46" r="5" fill="#A5A5A5"/>
<circle cx="215" cy="46" r="5" fill="#A8A8A8"/>
<circle cx="236" cy="46" r="5" fill="#D0D0D0"/>
<circle cx="257" cy="46" r="5" fill="#CECECE"/>
<circle cx="278" cy="46" r="5" fill="#D7D7D7"/>
<circle cx="299" cy="46" r="5" fill="#D2D2D2"/>
<circle cx="320" cy="46" r="5" fill="#929292"/>
<circle cx="341" cy="46" r="5" fill="#939393"/>
<circle cx="362" cy="46" r="5" fill="#B1B1B1"/>
<circle cx="383" cy="46" r="5" fill="#D5D5D5"/>
<circle cx="404" cy="46" r="5" fill="#8C8C8C"/>
<circle cx="425" cy="46" r="5" fill="#E0E0E0"/>
<circle cx="446" cy="46" r="5" fill="#8C8C8C"/>
<circle cx="467" cy="46" r="5" fill="#DEDEDE"/>
<circle cx="488" cy="46" r="5" fill="#AEAEAE"/>
<circle cx="5" cy="66" r="5" fill="#C5C5C5"/>
<circle cx="26" cy="66" r="5" fill="#D2D2D2"/>
<circle cx="47" cy="66" r="5" fill="#CECECE"/>
<circle cx="68" cy="66" r="5" fill="#9C9C9C"/>
<circle cx="89" cy="66" r="5" fill="#D1D1D1"/>
<circle cx="110" cy="66" r="5" fill="#A7A7A7"/>
<circle cx="131" cy="66" r="5" fill="#DADADA"/>
<circle cx="152" cy="66" r="5" fill="#A5A5A5"/>
<circle cx="173" cy="66" r="5" fill="#8C8C8C"/>
<circle cx="194" cy="66" r="5" fill="#909090"/>
<circle cx="215" cy="66" r="5" fill="#B8B8B8"/>
<circle cx="236" cy="66" r="5" fill="#DCDCDC"/>
<circle cx="257" cy="66" r="5" fill="#DCDCDC"/>
<circle cx="278" cy="66" r="5" fill="#C8C8C8"/>
<circle cx="299" cy="66" r="5" fill="#A2A2A2"/>
<circle cx="320" cy="66" r="5" fill="#A2A2A2"/>
<circle cx="341" cy="66" r="5" fill="#BFBFBF"/>
<circle cx="362" cy="66" r="5" fill="#DEDEDE"/>
<circle cx="383" cy="66" r="5" fill="#A5A5A5"/>
<circle cx="404" cy="66" r="5" fill="#989898"/>
<circle cx="425" cy="66" r="5" fill="#B1B1B1"/>
<circle cx="446" cy="66" r="5" fill="#E0E0E0"/>
<circle cx="467" cy="66" r="5" fill="#999999"/>
<circle cx="488" cy="66" r="5" fill="#C9C9C9"/>
<circle cx="5" cy="84" r="5" fill="#A5A5A5"/>
<circle cx="26" cy="84" r="5" fill="#B2B2B2"/>
<circle cx="47" cy="84" r="5" fill="#8F8F8F"/>
<circle cx="68" cy="84" r="5" fill="#CACACA"/>
<circle cx="89" cy="84" r="5" fill="#D3D3D3"/>
<circle cx="110" cy="84" r="5" fill="#B8B8B8"/>
<circle cx="131" cy="84" r="5" fill="#CDCDCD"/>
<circle cx="152" cy="84" r="5" fill="#BFBFBF"/>
<circle cx="173" cy="84" r="5" fill="#919191"/>
<circle cx="194" cy="84" r="5" fill="#DDDDDD"/>
<circle cx="215" cy="84" r="5" fill="#C8C8C8"/>
<circle cx="236" cy="84" r="5" fill="#979797"/>
<circle cx="257" cy="84" r="5" fill="#D5D5D5"/>
<circle cx="278" cy="84" r="5" fill="#888888"/>
<circle cx="299" cy="84" r="5" fill="#B7B7B7"/>
<circle cx="320" cy="84" r="5" fill="#CECECE"/>
<circle cx="341" cy="84" r="5" fill="#DCDCDC"/>
<circle cx="362" cy="84" r="5" fill="#939393"/>
<circle cx="383" cy="84" r="5" fill="#C1C1C1"/>
<circle cx="404" cy="84" r="5" fill="#B7B7B7"/>
<circle cx="425" cy="84" r="5" fill="#DEDEDE"/>
<circle cx="446" cy="84" r="5" fill="#B8B8B8"/>
<circle cx="467" cy="84" r="5" fill="#A9A9A9"/>
<circle cx="488" cy="84" r="5" fill="#D0D0D0"/>
<circle cx="5" cy="104" r="5" fill="#CECECE"/>
<circle cx="26" cy="104" r="5" fill="#9D9D9D"/>
<circle cx="47" cy="104" r="5" fill="#DCDCDC"/>
<circle cx="68" cy="104" r="5" fill="#DCDCDC"/>
<circle cx="89" cy="104" r="5" fill="#CECECE"/>
<circle cx="110" cy="104" r="5" fill="#BCBCBC"/>
<circle cx="131" cy="104" r="5" fill="#9B9B9B"/>
<circle cx="152" cy="104" r="5" fill="#A0A0A0"/>
<circle cx="173" cy="104" r="5" fill="#949494"/>
<circle cx="194" cy="104" r="5" fill="#C0C0C0"/>
<circle cx="215" cy="104" r="5" fill="#A8A8A8"/>
<circle cx="236" cy="104" r="5" fill="#9D9D9D"/>
<circle cx="257" cy="104" r="5" fill="#B3B3B3"/>
<circle cx="278" cy="104" r="5" fill="#A5A5A5"/>
<circle cx="299" cy="104" r="5" fill="#BFBFBF"/>
<circle cx="320" cy="104" r="5" fill="#C7C7C7"/>
<circle cx="341" cy="104" r="5" fill="#BBBBBB"/>
<circle cx="362" cy="104" r="5" fill="#ADADAD"/>
<circle cx="383" cy="104" r="5" fill="#D9D9D9"/>
<circle cx="404" cy="104" r="5" fill="#929292"/>
<circle cx="425" cy="104" r="5" fill="#B5B5B5"/>
<circle cx="446" cy="104" r="5" fill="#919191"/>
<circle cx="467" cy="104" r="5" fill="#C1C1C1"/>
<circle cx="488" cy="104" r="5" fill="#A5A5A5"/>
<circle cx="5" cy="125" r="5" fill="#C4C4C4"/>
<circle cx="26" cy="125" r="5" fill="#9F9F9F"/>
<circle cx="47" cy="125" r="5" fill="#BEBEBE"/>
<circle cx="68" cy="125" r="5" fill="#C8C8C8"/>
<circle cx="89" cy="125" r="5" fill="#BFBFBF"/>
<circle cx="110" cy="125" r="5" fill="#C2C2C2"/>
<circle cx="131" cy="125" r="5" fill="#DCDCDC"/>
<circle cx="152" cy="125" r="5" fill="#DBDBDB"/>
<circle cx="173" cy="125" r="5" fill="#9A9A9A"/>
<circle cx="194" cy="125" r="5" fill="#9C9C9C"/>
<circle cx="215" cy="125" r="5" fill="#C0C0C0"/>
<circle cx="236" cy="125" r="5" fill="#9D9D9D"/>
<circle cx="257" cy="125" r="5" fill="#B6B6B6"/>
<circle cx="278" cy="125" r="5" fill="#E0E0E0"/>
<circle cx="299" cy="125" r="5" fill="#A0A0A0"/>
<circle cx="320" cy="125" r="5" fill="#969696"/>
<circle cx="341" cy="125" r="5" fill="#8E8E8E"/>
<circle cx="362" cy="125" r="5" fill="#C8C8C8"/>
<circle cx="383" cy="125" r="5" fill="#8C8C8C"/>
<circle cx="404" cy="125" r="5" fill="#B7B7B7"/>
<circle cx="425" cy="125" r="5" fill="#C0C0C0"/>
<circle cx="446" cy="125" r="5" fill="#939393"/>
<circle cx="467" cy="125" r="5" fill="#D2D2D2"/>
<circle cx="488" cy="125" r="5" fill="#8A8A8A"/>
<circle cx="5" cy="145" r="5" fill="#A0A0A0"/>
<circle cx="26" cy="145" r="5" fill="#A2A2A2"/>
<circle cx="47" cy="145" r="5" fill="#D6D6D6"/>
<circle cx="68" cy="145" r="5" fill="#CCCCCC"/>
<circle cx="89" cy="145" r="5" fill="#ACACAC"/>
<circle cx="110" cy="145" r="5" fill="#969696"/>
<circle cx="131" cy="145" r="5" fill="#8D8D8D"/>
<circle cx="152" cy="145" r="5" fill="#A6A6A6"/>
<circle cx="173" cy="145" r="5" fill="#898989"/>
<circle cx="194" cy="145" r="5" fill="#929292"/>
<circle cx="215" cy="145" r="5" fill="#D3D3D3"/>
<circle cx="236" cy="145" r="5" fill="#DADADA"/>
<circle cx="257" cy="145" r="5" fill="#C7C7C7"/>
<circle cx="278" cy="145" r="5" fill="#8B8B8B"/>
<circle cx="299" cy="145" r="5" fill="#B0B0B0"/>
<circle cx="320" cy="145" r="5" fill="#ABABAB"/>
<circle cx="341" cy="145" r="5" fill="#C8C8C8"/>
<circle cx="362" cy="145" r="5" fill="#C5C5C5"/>
<circle cx="383" cy="145" r="5" fill="#C5C5C5"/>
<circle cx="404" cy="145" r="5" fill="#D6D6D6"/>
<circle cx="425" cy="145" r="5" fill="#AEAEAE"/>
<circle cx="446" cy="145" r="5" fill="#BFBFBF"/>
<circle cx="467" cy="145" r="5" fill="#A6A6A6"/>
<circle cx="488" cy="145" r="5" fill="#D1D1D1"/>
<circle cx="5" cy="164" r="5" fill="#CACACA"/>
<circle cx="26" cy="164" r="5" fill="#DFDFDF"/>
<circle cx="47" cy="164" r="5" fill="#D9D9D9"/>
<circle cx="68" cy="164" r="5" fill="#AEAEAE"/>
<circle cx="89" cy="164" r="5" fill="#9A9A9A"/>
<circle cx="110" cy="164" r="5" fill="#8B8B8B"/>
<circle cx="131" cy="164" r="5" fill="#B1B1B1"/>
<circle cx="152" cy="164" r="5" fill="#A4A4A4"/>
<circle cx="173" cy="164" r="5" fill="#D7D7D7"/>
<circle cx="194" cy="164" r="5" fill="#D4D4D4"/>
<circle cx="215" cy="164" r="5" fill="#C1C1C1"/>
<circle cx="236" cy="164" r="5" fill="#BABABA"/>
<circle cx="257" cy="164" r="5" fill="#B1B1B1"/>
<circle cx="278" cy="164" r="5" fill="#9C9C9C"/>
<circle cx="299" cy="164" r="5" fill="#8F8F8F"/>
<circle cx="320" cy="164" r="5" fill="#AFAFAF"/>
<circle cx="341" cy="164" r="5" fill="#8C8C8C"/>
<circle cx="362" cy="164" r="5" fill="#B0B0B0"/>
<circle cx="383" cy="164" r="5" fill="#C6C6C6"/>
<circle cx="404" cy="164" r="5" fill="#B9B9B9"/>
<circle cx="425" cy="164" r="5" fill="#A0A0A0"/>
<circle cx="446" cy="164" r="5" fill="#9C9C9C"/>
<circle cx="467" cy="164" r="5" fill="#C3C3C3"/>
<circle cx="488" cy="164" r="5" fill="#B0B0B0"/>
<circle cx="5" cy="184" r="5" fill="#B8B8B8"/>
<circle cx="26" cy="184" r="5" fill="#C3C3C3"/>
<circle cx="47" cy="184" r="5" fill="#B3B3B3"/>
<circle cx="68" cy="184" r="5" fill="#969696"/>
<circle cx="89" cy="184" r="5" fill="#9E9E9E"/>
<circle cx="110" cy="184" r="5" fill="#ACACAC"/>
<circle cx="131" cy="184" r="5" fill="#C6C6C6"/>
<circle cx="152" cy="184" r="5" fill="#B8B8B8"/>
<circle cx="173" cy="184" r="5" fill="#C7C7C7"/>
<circle cx="194" cy="184" r="5" fill="#A9A9A9"/>
<circle cx="215" cy="184" r="5" fill="#929292"/>
<circle cx="236" cy="184" r="5" fill="#D4D4D4"/>
<circle cx="257" cy="184" r="5" fill="#B5B5B5"/>
<circle cx="278" cy="184" r="5" fill="#A2A2A2"/>
<circle cx="299" cy="184" r="5" fill="#B8B8B8"/>
<circle cx="320" cy="184" r="5" fill="#DEDEDE"/>
<circle cx="341" cy="184" r="5" fill="#BCBCBC"/>
<circle cx="362" cy="184" r="5" fill="#B2B2B2"/>
<circle cx="383" cy="184" r="5" fill="#A8A8A8"/>
<circle cx="404" cy="184" r="5" fill="#939393"/>
<circle cx="425" cy="184" r="5" fill="#B8B8B8"/>
<circle cx="446" cy="184" r="5" fill="#989898"/>
<circle cx="467" cy="184" r="5" fill="#939393"/>
<circle cx="488" cy="184" r="5" fill="#DCDCDC"/>
<circle cx="5" cy="205" r="5" fill="#C4C4C4"/>
<circle cx="26" cy="205" r="5" fill="#888888"/>
<circle cx="47" cy="205" r="5" fill="#E0E0E0"/>
<circle cx="68" cy="205" r="5" fill="#A7A7A7"/>
<circle cx="89" cy="205" r="5" fill="#B3B3B3"/>
<circle cx="110" cy="205" r="5" fill="#C2C2C2"/>
<circle cx="131" cy="205" r="5" fill="#BABABA"/>
<circle cx="152" cy="205" r="5" fill="#DCDCDC"/>
<circle cx="173" cy="205" r="5" fill="#D3D3D3"/>
<circle cx="194" cy="205" r="5" fill="#B1B1B1"/>
<circle cx="215" cy="205" r="5" fill="#BFBFBF"/>
<circle cx="236" cy="205" r="5" fill="#929292"/>
<circle cx="257" cy="205" r="5" fill="#D5D5D5"/>
<circle cx="278" cy="205" r="5" fill="#D4D4D4"/>
<circle cx="299" cy="205" r="5" fill="#DCDCDC"/>
<circle cx="320" cy="205" r="5" fill="#BBBBBB"/>
<circle cx="341" cy="205" r="5" fill="#DFDFDF"/>
<circle cx="362" cy="205" r="5" fill="#C4C4C4"/>
<circle cx="383" cy="205" r="5" fill="#AEAEAE"/>
<circle cx="404" cy="205" r="5" fill="#C2C2C2"/>
<circle cx="425" cy="205" r="5" fill="#ACACAC"/>
<circle cx="446" cy="205" r="5" fill="#E0E0E0"/>
<circle cx="467" cy="205" r="5" fill="#898989"/>
<circle cx="488" cy="205" r="5" fill="#8A8A8A"/>
<circle cx="5" cy="225" r="5" fill="#D4D4D4"/>
<circle cx="26" cy="225" r="5" fill="#A3A3A3"/>
<circle cx="47" cy="225" r="5" fill="#939393"/>
<circle cx="68" cy="225" r="5" fill="#D4D4D4"/>
<circle cx="89" cy="225" r="5" fill="#999999"/>
<circle cx="110" cy="225" r="5" fill="#979797"/>
<circle cx="131" cy="225" r="5" fill="#959595"/>
<circle cx="152" cy="225" r="5" fill="#DFDFDF"/>
<circle cx="173" cy="225" r="5" fill="#A5A5A5"/>
<circle cx="194" cy="225" r="5" fill="#DBDBDB"/>
<circle cx="215" cy="225" r="5" fill="#AEAEAE"/>
<circle cx="236" cy="225" r="5" fill="#BABABA"/>
<circle cx="257" cy="225" r="5" fill="#D9D9D9"/>
<circle cx="278" cy="225" r="5" fill="#CBCBCB"/>
<circle cx="299" cy="225" r="5" fill="#CFCFCF"/>
<circle cx="320" cy="225" r="5" fill="#DFDFDF"/>
<circle cx="341" cy="225" r="5" fill="#D5D5D5"/>
<circle cx="362" cy="225" r="5" fill="#B8B8B8"/>
<circle cx="383" cy="225" r="5" fill="#D8D8D8"/>
<circle cx="404" cy="225" r="5" fill="#D5D5D5"/>
<circle cx="425" cy="225" r="5" fill="#A2A2A2"/>
<circle cx="446" cy="225" r="5" fill="#B0B0B0"/>
<circle cx="467" cy="225" r="5" fill="#9A9A9A"/>
<circle cx="488" cy="225" r="5" fill="#C1C1C1"/>
<circle cx="5" cy="243" r="5" fill="#CFCFCF"/>
<circle cx="26" cy="243" r="5" fill="#C3C3C3"/>
<circle cx="47" cy="243" r="5" fill="#B0B0B0"/>
<circle cx="68" cy="243" r="5" fill="#D3D3D3"/>
<circle cx="89" cy="243" r="5" fill="#9D9D9D"/>
<circle cx="110" cy="243" r="5" fill="#BEBEBE"/>
<circle cx="131" cy="243" r="5" fill="#A1A1A1"/>
<circle cx="152" cy="243" r="5" fill="#999999"/>
<circle cx="173" cy="243" r="5" fill="#BDBDBD"/>
<circle cx="194" cy="243" r="5" fill="#A9A9A9"/>
<circle cx="215" cy="243" r="5" fill="#B8B8B8"/>
<circle cx="236" cy="243" r="5" fill="#8C8C8C"/>
<circle cx="257" cy="243" r="5" fill="#CDCDCD"/>
<circle cx="278" cy="243" r="5" fill="#9E9E9E"/>
<circle cx="299" cy="243" r="5" fill="#949494"/>
<circle cx="320" cy="243" r="5" fill="#ADADAD"/>
<circle cx="341" cy="243" r="5" fill="#DADADA"/>
<circle cx="362" cy="243" r="5" fill="#C2C2C2"/>
<circle cx="383" cy="243" r="5" fill="#BEBEBE"/>
<circle cx="404" cy="243" r="5" fill="#C5C5C5"/>
<circle cx="425" cy="243" r="5" fill="#A8A8A8"/>
<circle cx="446" cy="243" r="5" fill="#D6D6D6"/>
<circle cx="467" cy="243" r="5" fill="#D3D3D3"/>
<circle cx="488" cy="243" r="5" fill="#D2D2D2"/>
<circle cx="5" cy="263" r="5" fill="#898989"/>
<circle cx="26" cy="263" r="5" fill="#C5C5C5"/>
<circle cx="47" cy="263" r="5" fill="#AFAFAF"/>
<circle cx="68" cy="263" r="5" fill="#CECECE"/>
<circle cx="89" cy="263" r="5" fill="#BABABA"/>
<circle cx="110" cy="263" r="5" fill="#ABABAB"/>
<circle cx="131" cy="263" r="5" fill="#DEDEDE"/>
<circle cx="152" cy="263" r="5" fill="#CDCDCD"/>
<circle cx="173" cy="263" r="5" fill="#E0E0E0"/>
<circle cx="194" cy="263" r="5" fill="#B3B3B3"/>
<circle cx="215" cy="263" r="5" fill="#D3D3D3"/>
<circle cx="236" cy="263" r="5" fill="#8D8D8D"/>
<circle cx="257" cy="263" r="5" fill="#A9A9A9"/>
<circle cx="278" cy="263" r="5" fill="#939393"/>
<circle cx="299" cy="263" r="5" fill="#A1A1A1"/>
<circle cx="320" cy="263" r="5" fill="#979797"/>
<circle cx="341" cy="263" r="5" fill="#B4B4B4"/>
<circle cx="362" cy="263" r="5" fill="#B5B5B5"/>
<circle cx="383" cy="263" r="5" fill="#BFBFBF"/>
<circle cx="404" cy="263" r="5" fill="#BCBCBC"/>
<circle cx="425" cy="263" r="5" fill="#8B8B8B"/>
<circle cx="446" cy="263" r="5" fill="#C0C0C0"/>
<circle cx="467" cy="263" r="5" fill="#AEAEAE"/>
<circle cx="488" cy="263" r="5" fill="#9F9F9F"/>
<circle cx="5" cy="284" r="5" fill="#8C8C8C"/>
<circle cx="26" cy="284" r="5" fill="#B9B9B9"/>
<circle cx="47" cy="284" r="5" fill="#A9A9A9"/>
<circle cx="68" cy="284" r="5" fill="#CECECE"/>
<circle cx="89" cy="284" r="5" fill="#D2D2D2"/>
<circle cx="110" cy="284" r="5" fill="#A5A5A5"/>
<circle cx="131" cy="284" r="5" fill="#909090"/>
<circle cx="152" cy="284" r="5" fill="#979797"/>
<circle cx="173" cy="284" r="5" fill="#CBCBCB"/>
<circle cx="194" cy="284" r="5" fill="#D0D0D0"/>
<circle cx="215" cy="284" r="5" fill="#D1D1D1"/>
<path d="M241 284C241 286.761 238.761 289 236 289C233.239 289 231 286.761 231 284C231 281.239 233.239 279 236 279C238.761 279 241 281.239 241 284Z" fill="#C2C2C2"/>
<circle cx="257" cy="284" r="5" fill="#9A9A9A"/>
<circle cx="278" cy="284" r="5" fill="#D1D1D1"/>
<circle cx="299" cy="284" r="5" fill="#C2C2C2"/>
<circle cx="320" cy="284" r="5" fill="#DDDDDD"/>
<circle cx="341" cy="284" r="5" fill="#939393"/>
<circle cx="362" cy="284" r="5" fill="#898989"/>
<circle cx="383" cy="284" r="5" fill="#D9D9D9"/>
<circle cx="404" cy="284" r="5" fill="#BFBFBF"/>
<circle cx="425" cy="284" r="5" fill="#AAAAAA"/>
<circle cx="446" cy="284" r="5" fill="#C6C6C6"/>
<circle cx="467" cy="284" r="5" fill="#969696"/>
<circle cx="488" cy="284" r="5" fill="#D2D2D2"/>
<circle cx="5" cy="304" r="5" fill="#B8B8B8"/>
<circle cx="26" cy="304" r="5" fill="#C6C6C6"/>
<circle cx="47" cy="304" r="5" fill="#D1D1D1"/>
<circle cx="68" cy="304" r="5" fill="#A0A0A0"/>
<circle cx="89" cy="304" r="5" fill="#959595"/>
<circle cx="110" cy="304" r="5" fill="#8F8F8F"/>
<circle cx="131" cy="304" r="5" fill="#C6C6C6"/>
<circle cx="152" cy="304" r="5" fill="#969696"/>
<circle cx="173" cy="304" r="5" fill="#9B9B9B"/>
<circle cx="194" cy="304" r="5" fill="#D4D4D4"/>
<circle cx="215" cy="304" r="5" fill="#979797"/>
<circle cx="236" cy="304" r="5" fill="#D6D6D6"/>
<circle cx="257" cy="304" r="5" fill="#BFBFBF"/>
<circle cx="278" cy="304" r="5" fill="#BBBBBB"/>
<circle cx="299" cy="304" r="5" fill="#B9B9B9"/>
<circle cx="320" cy="304" r="5" fill="#BABABA"/>
<circle cx="341" cy="304" r="5" fill="#8F8F8F"/>
<circle cx="362" cy="304" r="5" fill="#9F9F9F"/>
<circle cx="383" cy="304" r="5" fill="#DCDCDC"/>
<circle cx="404" cy="304" r="5" fill="#9F9F9F"/>
<circle cx="425" cy="304" r="5" fill="#B0B0B0"/>
<circle cx="446" cy="304" r="5" fill="#A6A6A6"/>
<circle cx="467" cy="304" r="5" fill="#DCDCDC"/>
<circle cx="488" cy="304" r="5" fill="#A8A8A8"/>
<circle cx="5" cy="323" r="5" fill="#D8D8D8"/>
<circle cx="26" cy="323" r="5" fill="#DADADA"/>
<circle cx="47" cy="323" r="5" fill="#898989"/>
<circle cx="68" cy="323" r="5" fill="#B3B3B3"/>
<circle cx="89" cy="323" r="5" fill="#C4C4C4"/>
<circle cx="110" cy="323" r="5" fill="#D0D0D0"/>
<circle cx="131" cy="323" r="5" fill="#A0A0A0"/>
<circle cx="152" cy="323" r="5" fill="#9A9A9A"/>
<circle cx="173" cy="323" r="5" fill="#9D9D9D"/>
<circle cx="194" cy="323" r="5" fill="#CDCDCD"/>
<circle cx="215" cy="323" r="5" fill="#929292"/>
<circle cx="236" cy="323" r="5" fill="#C6C6C6"/>
<circle cx="257" cy="323" r="5" fill="#9A9A9A"/>
<circle cx="278" cy="323" r="5" fill="#ACACAC"/>
<circle cx="299" cy="323" r="5" fill="#ACACAC"/>
<circle cx="320" cy="323" r="5" fill="#DFDFDF"/>
<circle cx="341" cy="323" r="5" fill="#A2A2A2"/>
<circle cx="362" cy="323" r="5" fill="#8B8B8B"/>
<circle cx="383" cy="323" r="5" fill="#8E8E8E"/>
<circle cx="404" cy="323" r="5" fill="#B0B0B0"/>
<circle cx="425" cy="323" r="5" fill="#898989"/>
<circle cx="446" cy="323" r="5" fill="#A9A9A9"/>
<circle cx="467" cy="323" r="5" fill="#939393"/>
<circle cx="488" cy="323" r="5" fill="#A2A2A2"/>
<circle cx="5" cy="343" r="5" fill="#8F8F8F"/>
<circle cx="26" cy="343" r="5" fill="#ABABAB"/>
<circle cx="47" cy="343" r="5" fill="#B8B8B8"/>
<circle cx="68" cy="343" r="5" fill="#D5D5D5"/>
<circle cx="89" cy="343" r="5" fill="#9A9A9A"/>
<circle cx="110" cy="343" r="5" fill="#B0B0B0"/>
<circle cx="131" cy="343" r="5" fill="#ACACAC"/>
<circle cx="152" cy="343" r="5" fill="#979797"/>
<circle cx="173" cy="343" r="5" fill="#A7A7A7"/>
<circle cx="194" cy="343" r="5" fill="#C4C4C4"/>
<circle cx="215" cy="343" r="5" fill="#BFBFBF"/>
<circle cx="236" cy="343" r="5" fill="#D5D5D5"/>
<circle cx="257" cy="343" r="5" fill="#A3A3A3"/>
<circle cx="278" cy="343" r="5" fill="#BEBEBE"/>
<circle cx="299" cy="343" r="5" fill="#B6B6B6"/>
<circle cx="320" cy="343" r="5" fill="#8F8F8F"/>
<circle cx="341" cy="343" r="5" fill="#888888"/>
<circle cx="362" cy="343" r="5" fill="#BEBEBE"/>
<circle cx="383" cy="343" r="5" fill="#888888"/>
<circle cx="404" cy="343" r="5" fill="#8C8C8C"/>
<circle cx="425" cy="343" r="5" fill="#898989"/>
<circle cx="446" cy="343" r="5" fill="#AFAFAF"/>
<circle cx="467" cy="343" r="5" fill="#C8C8C8"/>
<circle cx="488" cy="343" r="5" fill="#919191"/>
<circle cx="5" cy="364" r="5" fill="#8C8C8C"/>
<circle cx="26" cy="364" r="5" fill="#AFAFAF"/>
<circle cx="47" cy="364" r="5" fill="#BFBFBF"/>
<circle cx="68" cy="364" r="5" fill="#CDCDCD"/>
<circle cx="89" cy="364" r="5" fill="#959595"/>
<circle cx="110" cy="364" r="5" fill="#DBDBDB"/>
<circle cx="131" cy="364" r="5" fill="#A9A9A9"/>
<circle cx="152" cy="364" r="5" fill="#C1C1C1"/>
<circle cx="173" cy="364" r="5" fill="#929292"/>
<circle cx="194" cy="364" r="5" fill="#BABABA"/>
<circle cx="215" cy="364" r="5" fill="#D1D1D1"/>
<circle cx="236" cy="364" r="5" fill="#B3B3B3"/>
<circle cx="257" cy="364" r="5" fill="#DADADA"/>
<circle cx="278" cy="364" r="5" fill="#999999"/>
<circle cx="299" cy="364" r="5" fill="#9F9F9F"/>
<circle cx="320" cy="364" r="5" fill="#AAAAAA"/>
<circle cx="341" cy="364" r="5" fill="#888888"/>
<circle cx="362" cy="364" r="5" fill="#9B9B9B"/>
<circle cx="383" cy="364" r="5" fill="#959595"/>
<circle cx="404" cy="364" r="5" fill="#B6B6B6"/>
<circle cx="425" cy="364" r="5" fill="#D2D2D2"/>
<circle cx="446" cy="364" r="5" fill="#8C8C8C"/>
<circle cx="467" cy="364" r="5" fill="#C5C5C5"/>
<circle cx="488" cy="364" r="5" fill="#919191"/>
<circle cx="5" cy="384" r="5" fill="#B0B0B0"/>
<circle cx="26" cy="384" r="5" fill="#D5D5D5"/>
<circle cx="47" cy="384" r="5" fill="#CACACA"/>
<circle cx="68" cy="384" r="5" fill="#CCCCCC"/>
<circle cx="89" cy="384" r="5" fill="#BFBFBF"/>
<circle cx="110" cy="384" r="5" fill="#B8B8B8"/>
<circle cx="131" cy="384" r="5" fill="#8E8E8E"/>
<circle cx="152" cy="384" r="5" fill="#888888"/>
<circle cx="173" cy="384" r="5" fill="#D9D9D9"/>
<circle cx="194" cy="384" r="5" fill="#C6C6C6"/>
<circle cx="215" cy="384" r="5" fill="#A9A9A9"/>
<circle cx="236" cy="384" r="5" fill="#BFBFBF"/>
<circle cx="257" cy="384" r="5" fill="#B4B4B4"/>
<circle cx="278" cy="384" r="5" fill="#C6C6C6"/>
<circle cx="299" cy="384" r="5" fill="#C1C1C1"/>
<circle cx="320" cy="384" r="5" fill="#BFBFBF"/>
<circle cx="341" cy="384" r="5" fill="#B2B2B2"/>
<circle cx="362" cy="384" r="5" fill="#B1B1B1"/>
<circle cx="383" cy="384" r="5" fill="#A1A1A1"/>
<circle cx="404" cy="384" r="5" fill="#BBBBBB"/>
<circle cx="425" cy="384" r="5" fill="#8D8D8D"/>
<circle cx="446" cy="384" r="5" fill="#8C8C8C"/>
<circle cx="467" cy="384" r="5" fill="#E0E0E0"/>
<circle cx="488" cy="384" r="5" fill="#A9A9A9"/>
<circle cx="5" cy="402" r="5" fill="#8C8C8C"/>
<circle cx="26" cy="402" r="5" fill="#CBCBCB"/>
<circle cx="47" cy="402" r="5" fill="#D1D1D1"/>
<circle cx="68" cy="402" r="5" fill="#CCCCCC"/>
<circle cx="89" cy="402" r="5" fill="#BABABA"/>
<circle cx="110" cy="402" r="5" fill="#8F8F8F"/>
<circle cx="131" cy="402" r="5" fill="#A1A1A1"/>
<circle cx="152" cy="402" r="5" fill="#A3A3A3"/>
<circle cx="173" cy="402" r="5" fill="#BABABA"/>
<circle cx="194" cy="402" r="5" fill="#D6D6D6"/>
<circle cx="215" cy="402" r="5" fill="#B0B0B0"/>
<circle cx="236" cy="402" r="5" fill="#C6C6C6"/>
<circle cx="257" cy="402" r="5" fill="#BBBBBB"/>
<circle cx="278" cy="402" r="5" fill="#BDBDBD"/>
<circle cx="299" cy="402" r="5" fill="#C8C8C8"/>
<circle cx="320" cy="402" r="5" fill="#C8C8C8"/>
<circle cx="341" cy="402" r="5" fill="#BBBBBB"/>
<circle cx="362" cy="402" r="5" fill="#A9A9A9"/>
<circle cx="383" cy="402" r="5" fill="#A7A7A7"/>
<circle cx="404" cy="402" r="5" fill="#CECECE"/>
<circle cx="425" cy="402" r="5" fill="#A1A1A1"/>
<circle cx="446" cy="402" r="5" fill="#B4B4B4"/>
<circle cx="467" cy="402" r="5" fill="#B8B8B8"/>
<circle cx="488" cy="402" r="5" fill="#919191"/>
<circle cx="5" cy="422" r="5" fill="#BDBDBD"/>
<circle cx="26" cy="422" r="5" fill="#A8A8A8"/>
<circle cx="47" cy="422" r="5" fill="#C7C7C7"/>
<circle cx="68" cy="422" r="5" fill="#DCDCDC"/>
<circle cx="89" cy="422" r="5" fill="#D2D2D2"/>
<circle cx="110" cy="422" r="5" fill="#B5B5B5"/>
<circle cx="131" cy="422" r="5" fill="#ACACAC"/>
<circle cx="152" cy="422" r="5" fill="#B4B4B4"/>
<circle cx="173" cy="422" r="5" fill="#C1C1C1"/>
<circle cx="194" cy="422" r="5" fill="#ACACAC"/>
<circle cx="215" cy="422" r="5" fill="#D2D2D2"/>
<circle cx="236" cy="422" r="5" fill="#9B9B9B"/>
<circle cx="257" cy="422" r="5" fill="#8C8C8C"/>
<circle cx="278" cy="422" r="5" fill="#979797"/>
<circle cx="299" cy="422" r="5" fill="#CECECE"/>
<circle cx="320" cy="422" r="5" fill="#9A9A9A"/>
<circle cx="341" cy="422" r="5" fill="#9A9A9A"/>
<circle cx="362" cy="422" r="5" fill="#909090"/>
<circle cx="383" cy="422" r="5" fill="#CECECE"/>
<circle cx="404" cy="422" r="5" fill="#ABABAB"/>
<circle cx="425" cy="422" r="5" fill="#8F8F8F"/>
<circle cx="446" cy="422" r="5" fill="#BEBEBE"/>
<circle cx="467" cy="422" r="5" fill="#ADADAD"/>
<circle cx="488" cy="422" r="5" fill="#B6B6B6"/>
<circle cx="5" cy="443" r="5" fill="#8F8F8F"/>
<circle cx="26" cy="443" r="5" fill="#A0A0A0"/>
<circle cx="47" cy="443" r="5" fill="#B8B8B8"/>
<circle cx="68" cy="443" r="5" fill="#B0B0B0"/>
<circle cx="89" cy="443" r="5" fill="#DEDEDE"/>
<circle cx="110" cy="443" r="5" fill="#BFBFBF"/>
<circle cx="131" cy="443" r="5" fill="#CCCCCC"/>
<circle cx="152" cy="443" r="5" fill="#A6A6A6"/>
<circle cx="173" cy="443" r="5" fill="#A5A5A5"/>
<circle cx="194" cy="443" r="5" fill="#8B8B8B"/>
<circle cx="215" cy="443" r="5" fill="#969696"/>
<circle cx="236" cy="443" r="5" fill="#D3D3D3"/>
<circle cx="257" cy="443" r="5" fill="#C2C2C2"/>
<circle cx="278" cy="443" r="5" fill="#C6C6C6"/>
<circle cx="299" cy="443" r="5" fill="#A1A1A1"/>
<circle cx="320" cy="443" r="5" fill="#DDDDDD"/>
<circle cx="341" cy="443" r="5" fill="#ABABAB"/>
<circle cx="362" cy="443" r="5" fill="#8C8C8C"/>
<circle cx="383" cy="443" r="5" fill="#C6C6C6"/>
<circle cx="404" cy="443" r="5" fill="#CECECE"/>
<circle cx="425" cy="443" r="5" fill="#B0B0B0"/>
<circle cx="446" cy="443" r="5" fill="#929292"/>
<circle cx="467" cy="443" r="5" fill="#A3A3A3"/>
<circle cx="488" cy="443" r="5" fill="#DFDFDF"/>
<circle cx="5" cy="463" r="5" fill="#9D9D9D"/>
<circle cx="26" cy="463" r="5" fill="#979797"/>
<circle cx="47" cy="463" r="5" fill="#B9B9B9"/>
<circle cx="68" cy="463" r="5" fill="#A2A2A2"/>
<circle cx="89" cy="463" r="5" fill="#A4A4A4"/>
<circle cx="110" cy="463" r="5" fill="#C2C2C2"/>
<circle cx="131" cy="463" r="5" fill="#C5C5C5"/>
<circle cx="152" cy="463" r="5" fill="#929292"/>
<circle cx="173" cy="463" r="5" fill="#C1C1C1"/>
<circle cx="194" cy="463" r="5" fill="#CECECE"/>
<circle cx="215" cy="463" r="5" fill="#8E8E8E"/>
<circle cx="236" cy="463" r="5" fill="#C9C9C9"/>
<circle cx="257" cy="463" r="5" fill="#C5C5C5"/>
<circle cx="278" cy="463" r="5" fill="#CBCBCB"/>
<circle cx="299" cy="463" r="5" fill="#9F9F9F"/>
<circle cx="320" cy="463" r="5" fill="#B5B5B5"/>
<circle cx="341" cy="463" r="5" fill="#8D8D8D"/>
<circle cx="362" cy="463" r="5" fill="#A7A7A7"/>
<circle cx="383" cy="463" r="5" fill="#939393"/>
<circle cx="404" cy="463" r="5" fill="#939393"/>
<circle cx="425" cy="463" r="5" fill="#B6B6B6"/>
<circle cx="446" cy="463" r="5" fill="#B6B6B6"/>
<circle cx="467" cy="463" r="5" fill="#C3C3C3"/>
<circle cx="488" cy="463" r="5" fill="#888888"/>
<circle cx="5" cy="482" r="5" fill="#C1C1C1"/>
<circle cx="26" cy="482" r="5" fill="#A1A1A1"/>
<circle cx="47" cy="482" r="5" fill="#BFBFBF"/>
<circle cx="68" cy="482" r="5" fill="#CECECE"/>
<circle cx="89" cy="482" r="5" fill="#BFBFBF"/>
<circle cx="110" cy="482" r="5" fill="#BFBFBF"/>
<circle cx="131" cy="482" r="5" fill="#9D9D9D"/>
<circle cx="152" cy="482" r="5" fill="#E0E0E0"/>
<circle cx="173" cy="482" r="5" fill="#A9A9A9"/>
<circle cx="194" cy="482" r="5" fill="#8A8A8A"/>
<circle cx="215" cy="482" r="5" fill="#8C8C8C"/>
<circle cx="236" cy="482" r="5" fill="#BFBFBF"/>
<circle cx="257" cy="482" r="5" fill="#AFAFAF"/>
<circle cx="278" cy="482" r="5" fill="#D5D5D5"/>
<circle cx="299" cy="482" r="5" fill="#D3D3D3"/>
<circle cx="320" cy="482" r="5" fill="#C6C6C6"/>
<circle cx="341" cy="482" r="5" fill="#ACACAC"/>
<circle cx="362" cy="482" r="5" fill="#BEBEBE"/>
<circle cx="383" cy="482" r="5" fill="#919191"/>
<circle cx="404" cy="482" r="5" fill="#ACACAC"/>
<circle cx="425" cy="482" r="5" fill="#D2D2D2"/>
<circle cx="446" cy="482" r="5" fill="#B0B0B0"/>
<circle cx="467" cy="482" r="5" fill="#8F8F8F"/>
<circle cx="488" cy="482" r="5" fill="#BFBFBF"/>
<circle cx="5" cy="502" r="5" fill="#888888"/>
<circle cx="26" cy="502" r="5" fill="#C0C0C0"/>
<circle cx="47" cy="502" r="5" fill="#BFBFBF"/>
<circle cx="68" cy="502" r="5" fill="#B8B8B8"/>
<circle cx="89" cy="502" r="5" fill="#939393"/>
<circle cx="110" cy="502" r="5" fill="#9D9D9D"/>
<circle cx="131" cy="502" r="5" fill="#888888"/>
<circle cx="152" cy="502" r="5" fill="#929292"/>
<circle cx="173" cy="502" r="5" fill="#AEAEAE"/>
<circle cx="194" cy="502" r="5" fill="#939393"/>
<circle cx="215" cy="502" r="5" fill="#DDDDDD"/>
<circle cx="236" cy="502" r="5" fill="#929292"/>
<circle cx="257" cy="502" r="5" fill="#C8C8C8"/>
<circle cx="278" cy="502" r="5" fill="#C6C6C6"/>
<circle cx="299" cy="502" r="5" fill="#B7B7B7"/>
<circle cx="320" cy="502" r="5" fill="#CECECE"/>
<circle cx="341" cy="502" r="5" fill="#949494"/>
<circle cx="362" cy="502" r="5" fill="#D5D5D5"/>
<circle cx="383" cy="502" r="5" fill="#A9A9A9"/>
<circle cx="404" cy="502" r="5" fill="#9A9A9A"/>
<circle cx="425" cy="502" r="5" fill="#B8B8B8"/>
<circle cx="446" cy="502" r="5" fill="#ADADAD"/>
<circle cx="467" cy="502" r="5" fill="#CCCCCC"/>
<circle cx="488" cy="502" r="5" fill="#989898"/>
</svg>
